# Tiled2Unity generated file. Do not modify by hand.
# Wavefront file for 'untitled2_mesh_0004.obj'

# Vertices (Count = 636)
v -20700 -52900 -0.7065217
v -23900 -52900 -0.7065217
v -23900 -49700 -0.7065217
v -20700 -49700 -0.7065217
v -23000 -52900 -0.7065217
v -26200 -52900 -0.7065217
v -26200 -49700 -0.7065217
v -23000 -49700 -0.7065217
v -25300 -52900 -0.7065217
v -28500 -52900 -0.7065217
v -28500 -49700 -0.7065217
v -25300 -49700 -0.7065217
v -27600 -52900 -0.7065217
v -30800 -52900 -0.7065217
v -30800 -49700 -0.7065217
v -27600 -49700 -0.7065217
v -29900 -52900 -0.7065217
v -33100 -52900 -0.7065217
v -33100 -49700 -0.7065217
v -29900 -49700 -0.7065217
v -16100 -55200 -0.7377717
v -19300 -55200 -0.7377717
v -19300 -52000 -0.7377717
v -16100 -52000 -0.7377717
v -18400 -55200 -0.7377717
v -21600 -55200 -0.7377717
v -21600 -52000 -0.7377717
v -18400 -52000 -0.7377717
v -20700 -55200 -0.7377717
v -23900 -55200 -0.7377717
v -23900 -52000 -0.7377717
v -20700 -52000 -0.7377717
v -23000 -55200 -0.7377717
v -26200 -55200 -0.7377717
v -26200 -52000 -0.7377717
v -23000 -52000 -0.7377717
v -25300 -55200 -0.7377717
v -28500 -55200 -0.7377717
v -28500 -52000 -0.7377717
v -25300 -52000 -0.7377717
v -27600 -55200 -0.7377717
v -30800 -55200 -0.7377717
v -30800 -52000 -0.7377717
v -27600 -52000 -0.7377717
v -29900 -55200 -0.7377717
v -33100 -55200 -0.7377717
v -33100 -52000 -0.7377717
v -29900 -52000 -0.7377717
v -32200 -55200 -0.7377717
v -35400 -55200 -0.7377717
v -35400 -52000 -0.7377717
v -32200 -52000 -0.7377717
v -34500 -55200 -0.7377717
v -37700 -55200 -0.7377717
v -37700 -52000 -0.7377717
v -34500 -52000 -0.7377717
v -11500 -57500 -0.7690217
v -14700 -57500 -0.7690217
v -14700 -54300 -0.7690217
v -11500 -54300 -0.7690217
v -13800 -57500 -0.7690217
v -17000 -57500 -0.7690217
v -17000 -54300 -0.7690217
v -13800 -54300 -0.7690217
v -16100 -57500 -0.7690217
v -19300 -57500 -0.7690217
v -19300 -54300 -0.7690217
v -16100 -54300 -0.7690217
v -18400 -57500 -0.7690217
v -21600 -57500 -0.7690217
v -21600 -54300 -0.7690217
v -18400 -54300 -0.7690217
v -20700 -57500 -0.7690217
v -23900 -57500 -0.7690217
v -23900 -54300 -0.7690217
v -20700 -54300 -0.7690217
v -23000 -57500 -0.7690217
v -26200 -57500 -0.7690217
v -26200 -54300 -0.7690217
v -23000 -54300 -0.7690217
v -25300 -57500 -0.7690217
v -28500 -57500 -0.7690217
v -28500 -54300 -0.7690217
v -25300 -54300 -0.7690217
v -27600 -57500 -0.7690217
v -30800 -57500 -0.7690217
v -30800 -54300 -0.7690217
v -27600 -54300 -0.7690217
v -29900 -57500 -0.7690217
v -33100 -57500 -0.7690217
v -33100 -54300 -0.7690217
v -29900 -54300 -0.7690217
v -32200 -57500 -0.7690217
v -35400 -57500 -0.7690217
v -35400 -54300 -0.7690217
v -32200 -54300 -0.7690217
v -34500 -57500 -0.7690217
v -37700 -57500 -0.7690217
v -37700 -54300 -0.7690217
v -34500 -54300 -0.7690217
v -36800 -57500 -0.7690217
v -40000 -57500 -0.7690217
v -40000 -54300 -0.7690217
v -36800 -54300 -0.7690217
v -4600 -59800 -0.8002717
v -7800 -59800 -0.8002717
v -7800 -56600 -0.8002717
v -4600 -56600 -0.8002717
v -6900 -59800 -0.8002717
v -10100 -59800 -0.8002717
v -10100 -56600 -0.8002717
v -6900 -56600 -0.8002717
v -9200 -59800 -0.8002717
v -12400 -59800 -0.8002717
v -12400 -56600 -0.8002717
v -9200 -56600 -0.8002717
v -11500 -59800 -0.8002717
v -14700 -59800 -0.8002717
v -14700 -56600 -0.8002717
v -11500 -56600 -0.8002717
v -13800 -59800 -0.8002717
v -17000 -59800 -0.8002717
v -17000 -56600 -0.8002717
v -13800 -56600 -0.8002717
v -16100 -59800 -0.8002717
v -19300 -59800 -0.8002717
v -19300 -56600 -0.8002717
v -16100 -56600 -0.8002717
v -18400 -59800 -0.8002717
v -21600 -59800 -0.8002717
v -21600 -56600 -0.8002717
v -18400 -56600 -0.8002717
v -20700 -59800 -0.8002717
v -23900 -59800 -0.8002717
v -23900 -56600 -0.8002717
v -20700 -56600 -0.8002717
v -23000 -59800 -0.8002717
v -26200 -59800 -0.8002717
v -26200 -56600 -0.8002717
v -23000 -56600 -0.8002717
v -25300 -59800 -0.8002717
v -28500 -59800 -0.8002717
v -28500 -56600 -0.8002717
v -25300 -56600 -0.8002717
v -27600 -59800 -0.8002717
v -30800 -59800 -0.8002717
v -30800 -56600 -0.8002717
v -27600 -56600 -0.8002717
v -29900 -59800 -0.8002717
v -33100 -59800 -0.8002717
v -33100 -56600 -0.8002717
v -29900 -56600 -0.8002717
v -32200 -59800 -0.8002717
v -35400 -59800 -0.8002717
v -35400 -56600 -0.8002717
v -32200 -56600 -0.8002717
v -34500 -59800 -0.8002717
v -37700 -59800 -0.8002717
v -37700 -56600 -0.8002717
v -34500 -56600 -0.8002717
v -36800 -59800 -0.8002717
v -40000 -59800 -0.8002717
v -40000 -56600 -0.8002717
v -36800 -56600 -0.8002717
v -39100 -59800 -0.8002717
v -42300 -59800 -0.8002717
v -42300 -56600 -0.8002717
v -39100 -56600 -0.8002717
v -2300 -62100 -0.8315217
v -5500 -62100 -0.8315217
v -5500 -58900 -0.8315217
v -2300 -58900 -0.8315217
v -4600 -62100 -0.8315217
v -7800 -62100 -0.8315217
v -7800 -58900 -0.8315217
v -4600 -58900 -0.8315217
v -6900 -62100 -0.8315217
v -10100 -62100 -0.8315217
v -10100 -58900 -0.8315217
v -6900 -58900 -0.8315217
v -9200 -62100 -0.8315217
v -12400 -62100 -0.8315217
v -12400 -58900 -0.8315217
v -9200 -58900 -0.8315217
v -11500 -62100 -0.8315217
v -14700 -62100 -0.8315217
v -14700 -58900 -0.8315217
v -11500 -58900 -0.8315217
v -13800 -62100 -0.8315217
v -17000 -62100 -0.8315217
v -17000 -58900 -0.8315217
v -13800 -58900 -0.8315217
v -16100 -62100 -0.8315217
v -19300 -62100 -0.8315217
v -19300 -58900 -0.8315217
v -16100 -58900 -0.8315217
v -18400 -62100 -0.8315217
v -21600 -62100 -0.8315217
v -21600 -58900 -0.8315217
v -18400 -58900 -0.8315217
v -20700 -62100 -0.8315217
v -23900 -62100 -0.8315217
v -23900 -58900 -0.8315217
v -20700 -58900 -0.8315217
v -23000 -62100 -0.8315217
v -26200 -62100 -0.8315217
v -26200 -58900 -0.8315217
v -23000 -58900 -0.8315217
v -25300 -62100 -0.8315217
v -28500 -62100 -0.8315217
v -28500 -58900 -0.8315217
v -25300 -58900 -0.8315217
v -27600 -62100 -0.8315217
v -30800 -62100 -0.8315217
v -30800 -58900 -0.8315217
v -27600 -58900 -0.8315217
v -29900 -62100 -0.8315217
v -33100 -62100 -0.8315217
v -33100 -58900 -0.8315217
v -29900 -58900 -0.8315217
v -32200 -62100 -0.8315217
v -35400 -62100 -0.8315217
v -35400 -58900 -0.8315217
v -32200 -58900 -0.8315217
v -34500 -62100 -0.8315217
v -37700 -62100 -0.8315217
v -37700 -58900 -0.8315217
v -34500 -58900 -0.8315217
v -36800 -62100 -0.8315217
v -40000 -62100 -0.8315217
v -40000 -58900 -0.8315217
v -36800 -58900 -0.8315217
v -39100 -62100 -0.8315217
v -42300 -62100 -0.8315217
v -42300 -58900 -0.8315217
v -39100 -58900 -0.8315217
v 0 -64400 -0.8627717
v -3200 -64400 -0.8627717
v -3200 -61200 -0.8627717
v 0 -61200 -0.8627717
v -2300 -64400 -0.8627717
v -5500 -64400 -0.8627717
v -5500 -61200 -0.8627717
v -2300 -61200 -0.8627717
v -4600 -64400 -0.8627717
v -7800 -64400 -0.8627717
v -7800 -61200 -0.8627717
v -4600 -61200 -0.8627717
v -6900 -64400 -0.8627717
v -10100 -64400 -0.8627717
v -10100 -61200 -0.8627717
v -6900 -61200 -0.8627717
v -9200 -64400 -0.8627717
v -12400 -64400 -0.8627717
v -12400 -61200 -0.8627717
v -9200 -61200 -0.8627717
v -11500 -64400 -0.8627717
v -14700 -64400 -0.8627717
v -14700 -61200 -0.8627717
v -11500 -61200 -0.8627717
v -13800 -64400 -0.8627717
v -17000 -64400 -0.8627717
v -17000 -61200 -0.8627717
v -13800 -61200 -0.8627717
v -16100 -64400 -0.8627717
v -19300 -64400 -0.8627717
v -19300 -61200 -0.8627717
v -16100 -61200 -0.8627717
v -18400 -64400 -0.8627717
v -21600 -64400 -0.8627717
v -21600 -61200 -0.8627717
v -18400 -61200 -0.8627717
v -20700 -64400 -0.8627717
v -23900 -64400 -0.8627717
v -23900 -61200 -0.8627717
v -20700 -61200 -0.8627717
v -23000 -64400 -0.8627717
v -26200 -64400 -0.8627717
v -26200 -61200 -0.8627717
v -23000 -61200 -0.8627717
v -25300 -64400 -0.8627717
v -28500 -64400 -0.8627717
v -28500 -61200 -0.8627717
v -25300 -61200 -0.8627717
v -27600 -64400 -0.8627717
v -30800 -64400 -0.8627717
v -30800 -61200 -0.8627717
v -27600 -61200 -0.8627717
v -29900 -64400 -0.8627717
v -33100 -64400 -0.8627717
v -33100 -61200 -0.8627717
v -29900 -61200 -0.8627717
v -32200 -64400 -0.8627717
v -35400 -64400 -0.8627717
v -35400 -61200 -0.8627717
v -32200 -61200 -0.8627717
v -34500 -64400 -0.8627717
v -37700 -64400 -0.8627717
v -37700 -61200 -0.8627717
v -34500 -61200 -0.8627717
v -36800 -64400 -0.8627717
v -40000 -64400 -0.8627717
v -40000 -61200 -0.8627717
v -36800 -61200 -0.8627717
v -39100 -64400 -0.8627717
v -42300 -64400 -0.8627717
v -42300 -61200 -0.8627717
v -39100 -61200 -0.8627717
v -41400 -64400 -0.8627717
v -44600 -64400 -0.8627717
v -44600 -61200 -0.8627717
v -41400 -61200 -0.8627717
v -43700 -64400 -0.8627717
v -46900 -64400 -0.8627717
v -46900 -61200 -0.8627717
v -43700 -61200 -0.8627717
v 0 -66700 -0.8940217
v -3200 -66700 -0.8940217
v -3200 -63500 -0.8940217
v 0 -63500 -0.8940217
v -2300 -66700 -0.8940217
v -5500 -66700 -0.8940217
v -5500 -63500 -0.8940217
v -2300 -63500 -0.8940217
v -4600 -66700 -0.8940217
v -7800 -66700 -0.8940217
v -7800 -63500 -0.8940217
v -4600 -63500 -0.8940217
v -6900 -66700 -0.8940217
v -10100 -66700 -0.8940217
v -10100 -63500 -0.8940217
v -6900 -63500 -0.8940217
v -9200 -66700 -0.8940217
v -12400 -66700 -0.8940217
v -12400 -63500 -0.8940217
v -9200 -63500 -0.8940217
v -11500 -66700 -0.8940217
v -14700 -66700 -0.8940217
v -14700 -63500 -0.8940217
v -11500 -63500 -0.8940217
v -13800 -66700 -0.8940217
v -17000 -66700 -0.8940217
v -17000 -63500 -0.8940217
v -13800 -63500 -0.8940217
v -16100 -66700 -0.8940217
v -19300 -66700 -0.8940217
v -19300 -63500 -0.8940217
v -16100 -63500 -0.8940217
v -18400 -66700 -0.8940217
v -21600 -66700 -0.8940217
v -21600 -63500 -0.8940217
v -18400 -63500 -0.8940217
v -20700 -66700 -0.8940217
v -23900 -66700 -0.8940217
v -23900 -63500 -0.8940217
v -20700 -63500 -0.8940217
v -23000 -66700 -0.8940217
v -26200 -66700 -0.8940217
v -26200 -63500 -0.8940217
v -23000 -63500 -0.8940217
v -25300 -66700 -0.8940217
v -28500 -66700 -0.8940217
v -28500 -63500 -0.8940217
v -25300 -63500 -0.8940217
v -27600 -66700 -0.8940217
v -30800 -66700 -0.8940217
v -30800 -63500 -0.8940217
v -27600 -63500 -0.8940217
v -29900 -66700 -0.8940217
v -33100 -66700 -0.8940217
v -33100 -63500 -0.8940217
v -29900 -63500 -0.8940217
v -32200 -66700 -0.8940217
v -35400 -66700 -0.8940217
v -35400 -63500 -0.8940217
v -32200 -63500 -0.8940217
v -34500 -66700 -0.8940217
v -37700 -66700 -0.8940217
v -37700 -63500 -0.8940217
v -34500 -63500 -0.8940217
v -36800 -66700 -0.8940217
v -40000 -66700 -0.8940217
v -40000 -63500 -0.8940217
v -36800 -63500 -0.8940217
v -39100 -66700 -0.8940217
v -42300 -66700 -0.8940217
v -42300 -63500 -0.8940217
v -39100 -63500 -0.8940217
v -41400 -66700 -0.8940217
v -44600 -66700 -0.8940217
v -44600 -63500 -0.8940217
v -41400 -63500 -0.8940217
v -43700 -66700 -0.8940217
v -46900 -66700 -0.8940217
v -46900 -63500 -0.8940217
v -43700 -63500 -0.8940217
v 0 -69000 -0.9252717
v -3200 -69000 -0.9252717
v -3200 -65800 -0.9252717
v 0 -65800 -0.9252717
v -2300 -69000 -0.9252717
v -5500 -69000 -0.9252717
v -5500 -65800 -0.9252717
v -2300 -65800 -0.9252717
v -4600 -69000 -0.9252717
v -7800 -69000 -0.9252717
v -7800 -65800 -0.9252717
v -4600 -65800 -0.9252717
v -6900 -69000 -0.9252717
v -10100 -69000 -0.9252717
v -10100 -65800 -0.9252717
v -6900 -65800 -0.9252717
v -9200 -69000 -0.9252717
v -12400 -69000 -0.9252717
v -12400 -65800 -0.9252717
v -9200 -65800 -0.9252717
v -11500 -69000 -0.9252717
v -14700 -69000 -0.9252717
v -14700 -65800 -0.9252717
v -11500 -65800 -0.9252717
v -13800 -69000 -0.9252717
v -17000 -69000 -0.9252717
v -17000 -65800 -0.9252717
v -13800 -65800 -0.9252717
v -16100 -69000 -0.9252717
v -19300 -69000 -0.9252717
v -19300 -65800 -0.9252717
v -16100 -65800 -0.9252717
v -18400 -69000 -0.9252717
v -21600 -69000 -0.9252717
v -21600 -65800 -0.9252717
v -18400 -65800 -0.9252717
v -20700 -69000 -0.9252717
v -23900 -69000 -0.9252717
v -23900 -65800 -0.9252717
v -20700 -65800 -0.9252717
v -23000 -69000 -0.9252717
v -26200 -69000 -0.9252717
v -26200 -65800 -0.9252717
v -23000 -65800 -0.9252717
v -25300 -69000 -0.9252717
v -28500 -69000 -0.9252717
v -28500 -65800 -0.9252717
v -25300 -65800 -0.9252717
v -27600 -69000 -0.9252717
v -30800 -69000 -0.9252717
v -30800 -65800 -0.9252717
v -27600 -65800 -0.9252717
v -29900 -69000 -0.9252717
v -33100 -69000 -0.9252717
v -33100 -65800 -0.9252717
v -29900 -65800 -0.9252717
v -32200 -69000 -0.9252717
v -35400 -69000 -0.9252717
v -35400 -65800 -0.9252717
v -32200 -65800 -0.9252717
v -34500 -69000 -0.9252717
v -37700 -69000 -0.9252717
v -37700 -65800 -0.9252717
v -34500 -65800 -0.9252717
v -36800 -69000 -0.9252717
v -40000 -69000 -0.9252717
v -40000 -65800 -0.9252717
v -36800 -65800 -0.9252717
v -39100 -69000 -0.9252717
v -42300 -69000 -0.9252717
v -42300 -65800 -0.9252717
v -39100 -65800 -0.9252717
v -41400 -69000 -0.9252717
v -44600 -69000 -0.9252717
v -44600 -65800 -0.9252717
v -41400 -65800 -0.9252717
v -43700 -69000 -0.9252717
v -46900 -69000 -0.9252717
v -46900 -65800 -0.9252717
v -43700 -65800 -0.9252717
v 0 -71300 -0.9565217
v -3200 -71300 -0.9565217
v -3200 -68100 -0.9565217
v 0 -68100 -0.9565217
v -2300 -71300 -0.9565217
v -5500 -71300 -0.9565217
v -5500 -68100 -0.9565217
v -2300 -68100 -0.9565217
v -4600 -71300 -0.9565217
v -7800 -71300 -0.9565217
v -7800 -68100 -0.9565217
v -4600 -68100 -0.9565217
v -6900 -71300 -0.9565217
v -10100 -71300 -0.9565217
v -10100 -68100 -0.9565217
v -6900 -68100 -0.9565217
v -9200 -71300 -0.9565217
v -12400 -71300 -0.9565217
v -12400 -68100 -0.9565217
v -9200 -68100 -0.9565217
v -11500 -71300 -0.9565217
v -14700 -71300 -0.9565217
v -14700 -68100 -0.9565217
v -11500 -68100 -0.9565217
v -13800 -71300 -0.9565217
v -17000 -71300 -0.9565217
v -17000 -68100 -0.9565217
v -13800 -68100 -0.9565217
v -16100 -71300 -0.9565217
v -19300 -71300 -0.9565217
v -19300 -68100 -0.9565217
v -16100 -68100 -0.9565217
v -18400 -71300 -0.9565217
v -21600 -71300 -0.9565217
v -21600 -68100 -0.9565217
v -18400 -68100 -0.9565217
v -20700 -71300 -0.9565217
v -23900 -71300 -0.9565217
v -23900 -68100 -0.9565217
v -20700 -68100 -0.9565217
v -23000 -71300 -0.9565217
v -26200 -71300 -0.9565217
v -26200 -68100 -0.9565217
v -23000 -68100 -0.9565217
v -25300 -71300 -0.9565217
v -28500 -71300 -0.9565217
v -28500 -68100 -0.9565217
v -25300 -68100 -0.9565217
v -27600 -71300 -0.9565217
v -30800 -71300 -0.9565217
v -30800 -68100 -0.9565217
v -27600 -68100 -0.9565217
v -29900 -71300 -0.9565217
v -33100 -71300 -0.9565217
v -33100 -68100 -0.9565217
v -29900 -68100 -0.9565217
v -32200 -71300 -0.9565217
v -35400 -71300 -0.9565217
v -35400 -68100 -0.9565217
v -32200 -68100 -0.9565217
v -34500 -71300 -0.9565217
v -37700 -71300 -0.9565217
v -37700 -68100 -0.9565217
v -34500 -68100 -0.9565217
v -36800 -71300 -0.9565217
v -40000 -71300 -0.9565217
v -40000 -68100 -0.9565217
v -36800 -68100 -0.9565217
v -39100 -71300 -0.9565217
v -42300 -71300 -0.9565217
v -42300 -68100 -0.9565217
v -39100 -68100 -0.9565217
v -41400 -71300 -0.9565217
v -44600 -71300 -0.9565217
v -44600 -68100 -0.9565217
v -41400 -68100 -0.9565217
v -43700 -71300 -0.9565217
v -46900 -71300 -0.9565217
v -46900 -68100 -0.9565217
v -43700 -68100 -0.9565217
v 0 -73600 -0.9877717
v -3200 -73600 -0.9877717
v -3200 -70400 -0.9877717
v 0 -70400 -0.9877717
v -2300 -73600 -0.9877717
v -5500 -73600 -0.9877717
v -5500 -70400 -0.9877717
v -2300 -70400 -0.9877717
v -4600 -73600 -0.9877717
v -7800 -73600 -0.9877717
v -7800 -70400 -0.9877717
v -4600 -70400 -0.9877717
v -6900 -73600 -0.9877717
v -10100 -73600 -0.9877717
v -10100 -70400 -0.9877717
v -6900 -70400 -0.9877717
v -9200 -73600 -0.9877717
v -12400 -73600 -0.9877717
v -12400 -70400 -0.9877717
v -9200 -70400 -0.9877717
v -11500 -73600 -0.9877717
v -14700 -73600 -0.9877717
v -14700 -70400 -0.9877717
v -11500 -70400 -0.9877717
v -13800 -73600 -0.9877717
v -17000 -73600 -0.9877717
v -17000 -70400 -0.9877717
v -13800 -70400 -0.9877717
v -16100 -73600 -0.9877717
v -19300 -73600 -0.9877717
v -19300 -70400 -0.9877717
v -16100 -70400 -0.9877717
v -18400 -73600 -0.9877717
v -21600 -73600 -0.9877717
v -21600 -70400 -0.9877717
v -18400 -70400 -0.9877717
v -20700 -73600 -0.9877717
v -23900 -73600 -0.9877717
v -23900 -70400 -0.9877717
v -20700 -70400 -0.9877717
v -23000 -73600 -0.9877717
v -26200 -73600 -0.9877717
v -26200 -70400 -0.9877717
v -23000 -70400 -0.9877717
v -25300 -73600 -0.9877717
v -28500 -73600 -0.9877717
v -28500 -70400 -0.9877717
v -25300 -70400 -0.9877717
v -27600 -73600 -0.9877717
v -30800 -73600 -0.9877717
v -30800 -70400 -0.9877717
v -27600 -70400 -0.9877717
v -29900 -73600 -0.9877717
v -33100 -73600 -0.9877717
v -33100 -70400 -0.9877717
v -29900 -70400 -0.9877717
v -32200 -73600 -0.9877717
v -35400 -73600 -0.9877717
v -35400 -70400 -0.9877717
v -32200 -70400 -0.9877717
v -34500 -73600 -0.9877717
v -37700 -73600 -0.9877717
v -37700 -70400 -0.9877717
v -34500 -70400 -0.9877717
v -36800 -73600 -0.9877717
v -40000 -73600 -0.9877717
v -40000 -70400 -0.9877717
v -36800 -70400 -0.9877717
v -39100 -73600 -0.9877717
v -42300 -73600 -0.9877717
v -42300 -70400 -0.9877717
v -39100 -70400 -0.9877717
v -41400 -73600 -0.9877717
v -44600 -73600 -0.9877717
v -44600 -70400 -0.9877717
v -41400 -70400 -0.9877717
v -43700 -73600 -0.9877717
v -46900 -73600 -0.9877717
v -46900 -70400 -0.9877717
v -43700 -70400 -0.9877717

# Texture cooridinates (Count = 23)
vt 0.84375 0.90625
vt 0.875 0.90625
vt 0.875 0.9375
vt 0.84375 0.9375
vt 0.90625 0.90625
vt 0.90625 0.9375
vt 0.9375 0.90625
vt 0.9375 0.9375
vt 0.9375 0.96875
vt 0.90625 0.96875
vt 0.90625 0.8125
vt 0.9375 0.8125
vt 0.9375 0.84375
vt 0.90625 0.84375
vt 0.875 0.96875
vt 0.875 0.8125
vt 0.875 0.84375
vt 0.84375 0.8125
vt 0.84375 0.84375
vt 0.90625 0.875
vt 0.9375 0.875
vt 0.90625 1
vt 0.875 1

# Normal
vn 0 0 -1

# Mesh description
g untitled2_mesh_0004

# Faces
f 1/1/1 2/2/1 3/3/1 4/4/1
f 5/2/1 6/5/1 7/6/1 8/3/1
f 9/2/1 10/5/1 11/6/1 12/3/1
f 13/2/1 14/5/1 15/6/1 16/3/1
f 17/5/1 18/7/1 19/8/1 20/6/1
f 21/1/1 22/2/1 23/3/1 24/4/1
f 25/2/1 26/5/1 27/6/1 28/3/1
f 29/6/1 30/8/1 31/9/1 32/10/1
f 33/11/1 34/12/1 35/13/1 36/14/1
f 37/11/1 38/12/1 39/13/1 40/14/1
f 41/11/1 42/12/1 43/13/1 44/14/1
f 45/3/1 46/6/1 47/10/1 48/15/1
f 49/2/1 50/5/1 51/6/1 52/3/1
f 53/5/1 54/7/1 55/8/1 56/6/1
f 57/1/1 58/2/1 59/3/1 60/4/1
f 61/2/1 62/5/1 63/6/1 64/3/1
f 65/6/1 66/8/1 67/9/1 68/10/1
f 69/16/1 70/11/1 71/14/1 72/17/1
f 73/18/1 74/16/1 75/17/1 76/19/1
f 77/18/1 78/16/1 79/17/1 80/19/1
f 81/16/1 82/11/1 83/14/1 84/17/1
f 85/11/1 86/12/1 87/13/1 88/14/1
f 89/18/1 90/16/1 91/17/1 92/19/1
f 93/18/1 94/16/1 95/17/1 96/19/1
f 97/3/1 98/6/1 99/10/1 100/15/1
f 101/5/1 102/7/1 103/8/1 104/6/1
f 105/1/1 106/2/1 107/3/1 108/4/1
f 109/2/1 110/5/1 111/6/1 112/3/1
f 113/2/1 114/5/1 115/6/1 116/3/1
f 117/6/1 118/8/1 119/9/1 120/10/1
f 121/11/1 122/12/1 123/13/1 124/14/1
f 125/16/1 126/11/1 127/14/1 128/17/1
f 129/16/1 130/11/1 131/14/1 132/17/1
f 133/16/1 134/11/1 135/14/1 136/17/1
f 137/18/1 138/16/1 139/17/1 140/19/1
f 141/11/1 142/12/1 143/13/1 144/14/1
f 145/18/1 146/16/1 147/17/1 148/19/1
f 149/16/1 150/11/1 151/14/1 152/17/1
f 153/16/1 154/11/1 155/14/1 156/17/1
f 157/16/1 158/11/1 159/14/1 160/17/1
f 161/3/1 162/6/1 163/10/1 164/15/1
f 165/5/1 166/7/1 167/8/1 168/6/1
f 169/1/1 170/2/1 171/3/1 172/4/1
f 173/6/1 174/8/1 175/9/1 176/10/1
f 177/11/1 178/12/1 179/13/1 180/14/1
f 181/18/1 182/16/1 183/17/1 184/19/1
f 185/18/1 186/16/1 187/17/1 188/19/1
f 189/18/1 190/16/1 191/17/1 192/19/1
f 193/11/1 194/12/1 195/13/1 196/14/1
f 197/16/1 198/11/1 199/14/1 200/17/1
f 201/16/1 202/11/1 203/14/1 204/17/1
f 205/18/1 206/16/1 207/17/1 208/19/1
f 209/11/1 210/12/1 211/13/1 212/14/1
f 213/16/1 214/11/1 215/14/1 216/17/1
f 217/11/1 218/12/1 219/13/1 220/14/1
f 221/18/1 222/16/1 223/17/1 224/19/1
f 225/11/1 226/12/1 227/13/1 228/14/1
f 229/18/1 230/16/1 231/17/1 232/19/1
f 233/20/1 234/21/1 235/7/1 236/5/1
f 237/2/1 238/5/1 239/6/1 240/3/1
f 241/6/1 242/8/1 243/9/1 244/10/1
f 245/16/1 246/11/1 247/14/1 248/17/1
f 249/11/1 250/12/1 251/13/1 252/14/1
f 253/16/1 254/11/1 255/14/1 256/17/1
f 257/11/1 258/12/1 259/13/1 260/14/1
f 261/18/1 262/16/1 263/17/1 264/19/1
f 265/16/1 266/11/1 267/14/1 268/17/1
f 269/18/1 270/16/1 271/17/1 272/19/1
f 273/11/1 274/12/1 275/13/1 276/14/1
f 277/16/1 278/11/1 279/14/1 280/17/1
f 281/16/1 282/11/1 283/14/1 284/17/1
f 285/11/1 286/12/1 287/13/1 288/14/1
f 289/18/1 290/16/1 291/17/1 292/19/1
f 293/18/1 294/16/1 295/17/1 296/19/1
f 297/16/1 298/11/1 299/14/1 300/17/1
f 301/18/1 302/16/1 303/17/1 304/19/1
f 305/3/1 306/6/1 307/10/1 308/15/1
f 309/2/1 310/5/1 311/6/1 312/3/1
f 313/5/1 314/7/1 315/8/1 316/6/1
f 317/18/1 318/16/1 319/17/1 320/19/1
f 321/18/1 322/16/1 323/17/1 324/19/1
f 325/18/1 326/16/1 327/17/1 328/19/1
f 329/11/1 330/12/1 331/13/1 332/14/1
f 333/16/1 334/11/1 335/14/1 336/17/1
f 337/16/1 338/11/1 339/14/1 340/17/1
f 341/18/1 342/16/1 343/17/1 344/19/1
f 345/11/1 346/12/1 347/13/1 348/14/1
f 349/18/1 350/16/1 351/17/1 352/19/1
f 353/16/1 354/11/1 355/14/1 356/17/1
f 357/11/1 358/12/1 359/13/1 360/14/1
f 361/16/1 362/11/1 363/14/1 364/17/1
f 365/18/1 366/16/1 367/17/1 368/19/1
f 369/16/1 370/11/1 371/14/1 372/17/1
f 373/16/1 374/11/1 375/14/1 376/17/1
f 377/16/1 378/11/1 379/14/1 380/17/1
f 381/18/1 382/16/1 383/17/1 384/19/1
f 385/11/1 386/12/1 387/13/1 388/14/1
f 389/16/1 390/11/1 391/14/1 392/17/1
f 393/20/1 394/21/1 395/7/1 396/5/1
f 397/18/1 398/16/1 399/17/1 400/19/1
f 401/11/1 402/12/1 403/13/1 404/14/1
f 405/11/1 406/12/1 407/13/1 408/14/1
f 409/11/1 410/12/1 411/13/1 412/14/1
f 413/11/1 414/12/1 415/13/1 416/14/1
f 417/18/1 418/16/1 419/17/1 420/19/1
f 421/11/1 422/12/1 423/13/1 424/14/1
f 425/16/1 426/11/1 427/14/1 428/17/1
f 429/18/1 430/16/1 431/17/1 432/19/1
f 433/18/1 434/16/1 435/17/1 436/19/1
f 437/18/1 438/16/1 439/17/1 440/19/1
f 441/18/1 442/16/1 443/17/1 444/19/1
f 445/16/1 446/11/1 447/14/1 448/17/1
f 449/18/1 450/16/1 451/17/1 452/19/1
f 453/11/1 454/12/1 455/13/1 456/14/1
f 457/16/1 458/11/1 459/14/1 460/17/1
f 461/16/1 462/11/1 463/14/1 464/17/1
f 465/16/1 466/11/1 467/14/1 468/17/1
f 469/15/1 470/10/1 471/22/1 472/23/1
f 473/14/1 474/13/1 475/21/1 476/20/1
f 477/18/1 478/16/1 479/17/1 480/19/1
f 481/18/1 482/16/1 483/17/1 484/19/1
f 485/18/1 486/16/1 487/17/1 488/19/1
f 489/11/1 490/12/1 491/13/1 492/14/1
f 493/11/1 494/12/1 495/13/1 496/14/1
f 497/11/1 498/12/1 499/13/1 500/14/1
f 501/16/1 502/11/1 503/14/1 504/17/1
f 505/16/1 506/11/1 507/14/1 508/17/1
f 509/11/1 510/12/1 511/13/1 512/14/1
f 513/18/1 514/16/1 515/17/1 516/19/1
f 517/11/1 518/12/1 519/13/1 520/14/1
f 521/11/1 522/12/1 523/13/1 524/14/1
f 525/16/1 526/11/1 527/14/1 528/17/1
f 529/16/1 530/11/1 531/14/1 532/17/1
f 533/18/1 534/16/1 535/17/1 536/19/1
f 537/16/1 538/11/1 539/14/1 540/17/1
f 541/16/1 542/11/1 543/14/1 544/17/1
f 545/18/1 546/16/1 547/17/1 548/19/1
f 549/3/1 550/6/1 551/10/1 552/15/1
f 553/5/1 554/7/1 555/8/1 556/6/1
f 557/16/1 558/11/1 559/14/1 560/17/1
f 561/16/1 562/11/1 563/14/1 564/17/1
f 565/16/1 566/11/1 567/14/1 568/17/1
f 569/18/1 570/16/1 571/17/1 572/19/1
f 573/11/1 574/12/1 575/13/1 576/14/1
f 577/18/1 578/16/1 579/17/1 580/19/1
f 581/16/1 582/11/1 583/14/1 584/17/1
f 585/11/1 586/12/1 587/13/1 588/14/1
f 589/18/1 590/16/1 591/17/1 592/19/1
f 593/18/1 594/16/1 595/17/1 596/19/1
f 597/11/1 598/12/1 599/13/1 600/14/1
f 601/16/1 602/11/1 603/14/1 604/17/1
f 605/18/1 606/16/1 607/17/1 608/19/1
f 609/11/1 610/12/1 611/13/1 612/14/1
f 613/16/1 614/11/1 615/14/1 616/17/1
f 617/18/1 618/16/1 619/17/1 620/19/1
f 621/16/1 622/11/1 623/14/1 624/17/1
f 625/16/1 626/11/1 627/14/1 628/17/1
f 629/18/1 630/16/1 631/17/1 632/19/1
f 633/20/1 634/21/1 635/7/1 636/5/1

